<svg xmlns="http://www.w3.org/2000/svg" width="256" height="256" viewBox="0 0 256 256" role="img" aria-label="Pocket Bot learning"><defs><radialGradient id="body" cx="50%" cy="36%" r="64%"><stop offset="0" stop-color="#f3e4c2"/><stop offset="0.58" stop-color="#b8c9d8"/><stop offset="1" stop-color="#4c667a"/></radialGradient><radialGradient id="trace" cx="50%" cy="50%" r="62%"><stop offset="0" stop-color="#9b63ff" stop-opacity="0.5"/><stop offset="0.72" stop-color="#48a8ff" stop-opacity="0.14"/><stop offset="1" stop-color="#050b10" stop-opacity="0"/></radialGradient></defs><rect width="256" height="256" fill="none"/><circle cx="128" cy="132" r="90" fill="url(#trace)"/><ellipse cx="128" cy="154" rx="66" ry="52" fill="url(#body)" stroke="#9b63ff" stroke-width="5"/><rect x="60" y="82" width="136" height="76" rx="32" fill="url(#body)" stroke="#9b63ff" stroke-width="5"/><rect x="78" y="101" width="100" height="40" rx="18" fill="#071018"/><circle cx="106" cy="121" r="8" fill="#8dccff"/><circle cx="150" cy="121" r="8" fill="#8dccff"/><path d="M112 140 Q128 146 144 140" fill="none" stroke="#8dccff" stroke-width="4" stroke-linecap="round"/><path d="M128 58 V38" stroke="#9b63ff" stroke-width="6" stroke-linecap="round"/><circle cx="128" cy="31" r="9" fill="#9b63ff"/><path d="M50 190 C84 218 172 218 206 190" fill="none" stroke="#9b63ff" stroke-width="5" stroke-linecap="round" stroke-dasharray="8 8"/><g fill="none" stroke-linecap="round" stroke-linejoin="round"><path d="M72 188 L94 205 L130 166" stroke="#58d68d" stroke-width="8"/><path d="M160 174 H196 M160 192 H188" stroke="#f3e4c2" stroke-width="5" opacity="0.76"/></g><path d="M42 132 C28 120 28 102 42 90" fill="none" stroke="#b8c9d8" stroke-width="12" stroke-linecap="round"/><path d="M214 132 C228 120 228 102 214 90" fill="none" stroke="#b8c9d8" stroke-width="12" stroke-linecap="round"/></svg>
