<svg xmlns="http://www.w3.org/2000/svg" width="256" height="256" viewBox="0 0 256 256" role="img" aria-label="Pocket Bot excited"><defs><radialGradient id="body" cx="50%" cy="36%" r="64%"><stop offset="0" stop-color="#f3e4c2"/><stop offset="0.58" stop-color="#b8c9d8"/><stop offset="1" stop-color="#4c667a"/></radialGradient><radialGradient id="glow" cx="50%" cy="48%" r="55%"><stop offset="0" stop-color="#f2b33d" stop-opacity="0.52"/><stop offset="1" stop-color="#050b10" stop-opacity="0"/></radialGradient></defs><rect width="256" height="256" fill="none"/><circle cx="128" cy="124" r="92" fill="url(#glow)"/><ellipse cx="128" cy="150" rx="68" ry="54" fill="url(#body)" stroke="#f2b33d" stroke-width="5"/><rect x="58" y="80" width="140" height="76" rx="32" fill="url(#body)" stroke="#f2b33d" stroke-width="5"/><rect x="76" y="99" width="104" height="40" rx="18" fill="#071018"/><circle cx="105" cy="119" r="10" fill="#48a8ff"><animate attributeName="r" values="8;11;8" dur="1.6s" repeatCount="indefinite"/></circle><circle cx="151" cy="119" r="10" fill="#48a8ff"><animate attributeName="r" values="8;11;8" dur="1.6s" repeatCount="indefinite"/></circle><path d="M111 139 Q128 151 145 139" fill="none" stroke="#8dccff" stroke-width="4" stroke-linecap="round"/><path d="M76 184 C92 208 164 208 180 184" fill="none" stroke="#6f8496" stroke-width="8" stroke-linecap="round"/><path d="M40 136 C24 126 22 104 36 92" fill="none" stroke="#b8c9d8" stroke-width="12" stroke-linecap="round"/><path d="M216 136 C232 126 234 104 220 92" fill="none" stroke="#b8c9d8" stroke-width="12" stroke-linecap="round"/><path d="M128 56 V34" stroke="#f2b33d" stroke-width="6" stroke-linecap="round"/><circle cx="128" cy="28" r="10" fill="#f2b33d"/><g stroke="#f2b33d" stroke-width="5" stroke-linecap="round" opacity="0.84"><path d="M70 54 L54 38"/><path d="M186 54 L202 38"/><path d="M92 35 L86 15"/><path d="M164 35 L170 15"/></g></svg>
