<svg xmlns="http://www.w3.org/2000/svg" width="720" height="360" viewBox="0 0 720 360" role="img" aria-label="Trace drawer frame"><defs><linearGradient id="panel" x1="0" y1="0" x2="1" y2="1"><stop offset="0" stop-color="#101923"/><stop offset="0.55" stop-color="#14202b"/><stop offset="1" stop-color="#071018"/></linearGradient><radialGradient id="glow" cx="18%" cy="20%" r="70%"><stop offset="0" stop-color="#9b63ff" stop-opacity="0.24"/><stop offset="0.6" stop-color="#2b5f8f" stop-opacity="0.1"/><stop offset="1" stop-color="#050b10" stop-opacity="0"/></radialGradient></defs><rect x="0" y="0" width="720" height="360" rx="30" fill="url(#panel)"/><rect x="14" y="14" width="692" height="332" rx="24" fill="none" stroke="#9b63ff" stroke-width="2" stroke-opacity="0.62"/><rect x="0" y="0" width="720" height="360" rx="30" fill="url(#glow)"/><path d="M278 30 H442" stroke="#6f8496" stroke-width="5" stroke-linecap="round" opacity="0.72"/><g transform="translate(38 54)"><rect width="92" height="92" rx="18" fill="#2d2438" stroke="#9b63ff" stroke-width="2"/><path d="M20 50 C32 34 60 34 72 50 C60 66 32 66 20 50Z" fill="#071018" stroke="#c6a9ff" stroke-width="2"/><circle cx="46" cy="50" r="10" fill="#9b63ff"/></g><g stroke="#35506a" stroke-width="1" opacity="0.5"><line x1="158" y1="142" x2="668" y2="142"/><line x1="158" y1="212" x2="668" y2="212"/><line x1="158" y1="282" x2="668" y2="282"/></g><g fill="#f2b33d" opacity="0.3"><circle cx="650" cy="62" r="3"/><circle cx="676" cy="88" r="2"/><circle cx="630" cy="316" r="2"/></g></svg>
