<svg xmlns="http://www.w3.org/2000/svg" width="512" height="180" viewBox="0 0 512 180" role="img" aria-label="Bitcoin signal glow"><defs><radialGradient id="gold" cx="66%" cy="40%" r="44%"><stop offset="0" stop-color="#f2b33d" stop-opacity="0.72"/><stop offset="0.5" stop-color="#d87822" stop-opacity="0.24"/><stop offset="1" stop-color="#050b10" stop-opacity="0"/></radialGradient><filter id="blur"><feGaussianBlur stdDeviation="6"/></filter></defs><rect width="512" height="180" fill="none"/><rect width="512" height="180" rx="24" fill="url(#gold)"/><g stroke="#f2b33d" stroke-width="8" stroke-linecap="round" stroke-linejoin="round" filter="url(#blur)" opacity="0.46"><polyline points="18,134 58,124 96,136 132,100 172,108 214,72 256,84 302,36 344,72 388,56 434,86 494,66" fill="none"/></g><g stroke="#f2b33d" stroke-width="4" stroke-linecap="round" stroke-linejoin="round"><polyline points="18,134 58,124 96,136 132,100 172,108 214,72 256,84 302,36 344,72 388,56 434,86 494,66" fill="none"/><circle cx="302" cy="36" r="10" fill="#f2b33d"/><circle cx="494" cy="66" r="6" fill="#d87822"/></g><text x="26" y="36" fill="#f3e4c2" font-family="system-ui, sans-serif" font-size="16" font-weight="700" opacity="0.86">BRIGHT SIGNAL</text><text x="420" y="58" fill="#f2b33d" font-family="system-ui, sans-serif" font-size="58" font-weight="700" opacity="0.22">₿</text></svg>
