<svg xmlns="http://www.w3.org/2000/svg" width="720" height="520" viewBox="0 0 720 520" role="img" aria-label="Moonlit market arena card background"><defs><linearGradient id="bg" x1="0" y1="0" x2="1" y2="1"><stop offset="0" stop-color="#071018"/><stop offset="0.48" stop-color="#0b2230"/><stop offset="1" stop-color="#05070b"/></linearGradient><radialGradient id="glow" cx="62%" cy="40%" r="44%"><stop offset="0" stop-color="#f2b33d" stop-opacity="0.55"/><stop offset="0.45" stop-color="#d87822" stop-opacity="0.16"/><stop offset="1" stop-color="#05070b" stop-opacity="0"/></radialGradient><filter id="soft"><feGaussianBlur stdDeviation="7"/></filter></defs><rect width="720" height="520" rx="34" fill="url(#bg)"/><rect x="18" y="18" width="684" height="484" rx="28" fill="none" stroke="#35506a" stroke-opacity="0.78" stroke-width="2"/><rect width="720" height="520" rx="34" fill="url(#glow)"/><g opacity="0.3" stroke="#8dccff" stroke-width="1"><path d="M38 392 C136 344 188 390 270 334 S426 272 526 312 642 276 692 230" fill="none"/><path d="M36 424 C132 394 202 422 284 378 S436 316 546 352 644 330 692 286" fill="none"/></g><g opacity="0.42" fill="#0f3343"><path d="M0 422 C124 360 218 426 342 364 S568 342 720 386 V520 H0 Z"/><path d="M0 468 C96 430 216 472 330 426 S568 416 720 452 V520 H0 Z" fill="#06141d"/></g><g stroke="#f2b33d" stroke-width="5" stroke-linecap="round" stroke-linejoin="round" filter="url(#soft)" opacity="0.45"><polyline points="64,338 124,320 184,348 244,282 304,292 364,214 424,238 484,134 544,202 604,178 664,232" fill="none"/></g><g stroke="#f2b33d" stroke-width="3" stroke-linecap="round" stroke-linejoin="round"><polyline points="64,338 124,320 184,348 244,282 304,292 364,214 424,238 484,134 544,202 604,178 664,232" fill="none"/><circle cx="484" cy="134" r="9" fill="#f2b33d"/><circle cx="664" cy="232" r="6" fill="#d87822"/></g><g opacity="0.44"><circle cx="112" cy="112" r="2" fill="#f3e4c2"/><circle cx="248" cy="78" r="1.5" fill="#f3e4c2"/><circle cx="612" cy="88" r="2" fill="#f3e4c2"/><circle cx="652" cy="424" r="1.5" fill="#48a8ff"/><circle cx="68" cy="452" r="1.5" fill="#48a8ff"/></g></svg>
