<svg xmlns="http://www.w3.org/2000/svg" width="160" height="160" viewBox="0 0 160 160" role="img" aria-label="Crowd pressure surface"><defs><radialGradient id="pulse" cx="50%" cy="50%" r="64%"><stop offset="0" stop-color="#ff5a3d" stop-opacity="0.54"/><stop offset="0.42" stop-color="#9b63ff" stop-opacity="0.34"/><stop offset="1" stop-color="#050b10" stop-opacity="0"/></radialGradient><filter id="blur"><feGaussianBlur stdDeviation="4"/></filter></defs><circle cx="80" cy="80" r="72" fill="#071018" opacity="0.92"/><circle cx="80" cy="80" r="70" fill="url(#pulse)"/><g filter="url(#blur)" opacity="0.34"><circle cx="54" cy="76" r="18" fill="#ff5a3d"/><circle cx="84" cy="60" r="22" fill="#f2b33d"/><circle cx="108" cy="88" r="20" fill="#9b63ff"/></g><g fill="#f3e4c2" opacity="0.86"><circle cx="54" cy="72" r="6"/><circle cx="80" cy="58" r="7"/><circle cx="106" cy="78" r="6"/><path d="M42 100 C46 88 62 88 66 100"/><path d="M66 96 C70 82 90 82 94 96"/><path d="M94 102 C98 90 114 90 118 102"/></g><path d="M34 118 C58 104 100 104 126 118" fill="none" stroke="#ff9a85" stroke-width="4" stroke-linecap="round" opacity="0.75"/><path d="M28 42 C56 30 98 30 132 46" fill="none" stroke="#9b63ff" stroke-width="3" stroke-linecap="round" opacity="0.55"/></svg>
